<?xml version="1.0" encoding="UTF-8" standalone="no"?>
<svg
   viewBox="0 0 512 512"
   width="512"
   height="512"
   role="img"
   aria-label="NSwag4SignalR"
   version="1.1"
   id="svg10"
   sodipodi:docname="Icon.svg"
   inkscape:version="1.3 (0e150ed, 2023-07-21)"
   xmlns:inkscape="http://www.inkscape.org/namespaces/inkscape"
   xmlns:sodipodi="http://sodipodi.sourceforge.net/DTD/sodipodi-0.dtd"
   xmlns="http://www.w3.org/2000/svg"
   xmlns:svg="http://www.w3.org/2000/svg">
  <sodipodi:namedview
     id="namedview10"
     pagecolor="#505050"
     bordercolor="#ffffff"
     borderopacity="1"
     inkscape:showpageshadow="0"
     inkscape:pageopacity="0"
     inkscape:pagecheckerboard="1"
     inkscape:deskcolor="#d1d1d1"
     showgrid="false"
     inkscape:zoom="0.4609375"
     inkscape:cx="256"
     inkscape:cy="254.91525"
     inkscape:window-width="1456"
     inkscape:window-height="904"
     inkscape:window-x="0"
     inkscape:window-y="25"
     inkscape:window-maximized="0"
     inkscape:current-layer="svg10" />
  <title
     id="title1">NSwag4SignalR</title>
  <desc
     id="desc1">Icon for NSwag4SignalR</desc>
  <defs
     id="defs4">
    <linearGradient
       id="bg"
       x1="0"
       x2="1"
       y1="0"
       y2="1">
      <stop
         offset="0"
         stop-color="#08b3ad"
         id="stop1" />
      <stop
         offset="1"
         stop-color="#1366b2"
         id="stop2" />
    </linearGradient>
    <linearGradient
       id="warm"
       x1="338"
       x2="402"
       y1="308"
       y2="372"
       gradientUnits="userSpaceOnUse">
      <stop
         offset="0"
         stop-color="#ffd38e"
         id="stop3" />
      <stop
         offset="1"
         stop-color="#ff7a2a"
         id="stop4" />
    </linearGradient>
    <filter
       id="softShadow"
       x="0"
       y="0"
       width="1"
       height="1">
      <feDropShadow
         dx="0"
         dy="10"
         stdDeviation="16"
         flood-color="#07222a"
         flood-opacity="0.18" />
    </filter>
  </defs>
  <rect
     x="20"
     y="20"
     width="472"
     height="472"
     rx="72"
     fill="url(#bg)"
     filter="url(#softShadow)"
     id="rect4" />
  <path
     d="M72 120C160 60 352 60 440 120"
     fill="none"
     stroke="#fff"
     stroke-opacity="0.06"
     stroke-width="44"
     stroke-linecap="round"
     id="path4" />
  <path
     d="m 188.01117,399.31845 c -79.99999,-60 -79.99999,-229.99999 0,-200 60,24 56,112 126,90 69.99999,-22 59.99999,-147.99999 -16,-92"
     fill="none"
     stroke="#ffffff"
     stroke-width="34"
     stroke-linecap="round"
     stroke-linejoin="round"
     stroke-opacity="0.98"
     id="path5" />
  <g
     transform="translate(-28.20339,219.11864)"
     id="g8">
    <path
       d="m 384,200 c 8,-14 8,-28 0,-42"
       fill="none"
       stroke="#ffd38e"
       stroke-width="10"
       stroke-linecap="round"
       id="path6" />
    <path
       d="m 408,200 c 18,-30 18,-56 0,-86"
       fill="none"
       stroke="#ff9a47"
       stroke-width="12"
       stroke-linecap="round"
       id="path7" />
    <path
       d="m 436,200 c 30,-52 30,-94 0,-146"
       fill="none"
       stroke="#ff7a2a"
       stroke-width="14"
       stroke-linecap="round"
       id="path8" />
  </g>
  <g
     transform="translate(-65.084746,58.576271)"
     id="g10">
    <circle
       cx="370"
       cy="340"
       r="40"
       fill="#ffffff"
       fill-opacity="0.07"
       id="circle8" />
    <circle
       cx="370"
       cy="340"
       r="32"
       fill="url(#warm)"
       id="circle9"
       style="fill:url(#warm)" />
    <path
       d="m 356,324 c -12,0 -12,8 -12,16 0,8 0,16 12,16"
       fill="none"
       stroke="#ffffff"
       stroke-width="5"
       stroke-linecap="round"
       stroke-linejoin="round"
       id="path9" />
    <path
       d="m 384,324 c 12,0 12,8 12,16 0,8 0,16 -12,16"
       fill="none"
       stroke="#ffffff"
       stroke-width="5"
       stroke-linecap="round"
       stroke-linejoin="round"
       id="path10" />
  </g>
  <rect
     x="56"
     y="56"
     width="400"
     height="400"
     rx="56"
     fill="none"
     stroke="#ffffff"
     stroke-opacity="0.04"
     stroke-width="6"
     id="rect10" />
</svg>
